<?xml version="1.0" encoding="UTF-8"?>
<!-- Generator: visioncortex VTracer 0.6.4 -->
<svg version="1.1" xmlns="http://www.w3.org/2000/svg" width="300" height="300" viewBox="0 0 626 626">
  <style>
    @media (prefers-color-scheme: light) {
      path {
        fill: #36454f;
      }
    }
    @media (prefers-color-scheme: dark) {
      path {
        fill: #e8ebf2;
      }
    }
  </style>
  <g transform="translate(100,100)">
    <path d="M0 0 C36.511025 -0.068617 73.022039 -0.121504 109.533116 -0.153196 C113.840355 -0.156948 118.147595 -0.160831 122.454834 -0.164795 C123.312353 -0.165582 124.169873 -0.166369 125.053378 -0.16718 C138.95117 -0.180245 152.848924 -0.203905 166.746694 -0.231458 C180.999552 -0.25948 195.252391 -0.276169 209.505276 -0.282265 C218.305111 -0.286389 227.10484 -0.299426 235.904642 -0.323749 C241.933182 -0.339567 247.961667 -0.344409 253.990226 -0.340504 C257.472103 -0.338576 260.953796 -0.3416 264.43564 -0.357616 C268.205111 -0.372442 271.974126 -0.36899 275.743607 -0.360764 C276.85157 -0.369502 277.959534 -0.378241 279.101072 -0.387244 C280.609634 -0.378284 280.609634 -0.378284 282.148671 -0.369143 C283.01937 -0.370283 283.890069 -0.371422 284.787152 -0.372595 C287.496324 0.08357 288.312947 0.87807 290 3 C291.061324 4.660463 292.071505 6.354039 293.046875 8.066406 C293.636621 9.095723 294.226367 10.125039 294.833984 11.185547 C295.46627 12.299941 296.098555 13.414336 296.75 14.5625 C297.419413 15.734015 298.089344 16.905234 298.759766 18.076172 C300.1524 20.509438 301.542797 22.943962 302.931641 25.379395 C306.100297 30.931576 309.301745 36.464835 312.5 42 C313.748872 44.163962 314.99757 46.328025 316.246094 48.492188 C316.864683 49.564365 317.483271 50.636543 318.120605 51.741211 C320.009802 55.016996 321.897641 58.293559 323.785156 61.570312 C329.807473 72.022062 335.846693 82.462995 341.9375 92.875 C347.359212 102.144998 352.702049 111.458318 358.019226 120.788452 C363.220451 129.912828 368.480279 139.001328 373.783447 148.066895 C381.214104 160.773601 388.548858 173.535626 395.895508 186.291016 C403.819674 200.046943 411.772443 213.785342 419.78125 227.492188 C420.298164 228.389053 420.815078 229.285918 421.347656 230.209961 C422.521489 232.192018 423.743025 234.146163 424.996094 236.079102 C429.881865 243.797169 429.881865 243.797169 430.386719 248.9375 C428.845554 255.095824 425.032338 260.59953 421.8125 266 C421.082154 267.247798 420.353087 268.496346 419.625244 269.745605 C418.14133 272.287623 416.649956 274.825005 415.151367 277.358398 C412.623648 281.63195 410.127575 285.923714 407.631104 290.215576 C405.926004 293.144749 404.215405 296.070656 402.503906 298.996094 C393.641558 314.16189 384.904355 329.400286 376.206543 344.660889 C372.78373 350.655727 369.299457 356.611633 365.785645 362.553467 C361.967553 369.02356 358.244346 375.546464 354.524658 382.073486 C350.825469 388.562538 347.096854 395.033759 343.349121 401.494873 C340.089832 407.114755 336.842192 412.741246 333.598877 418.370361 C327.526682 428.908478 321.425739 439.428977 315.287842 449.928955 C312.177373 455.254209 309.079314 460.586357 306 465.929688 C305.497628 466.801406 305.497628 466.801406 304.985107 467.690735 C303.371261 470.492112 301.759031 473.294408 300.148438 476.097656 C296.890771 481.759107 293.585961 487.381785 290.164062 492.945801 C288.864598 495.085218 288.864598 495.085218 288 498 C192.63 498 97.26 498 -1 498 C-0.135014 494.540057 0.72278 492.450325 2.449219 489.421875 C3.215647 488.070656 3.215647 488.070656 3.997559 486.692139 C4.555239 485.721233 5.11292 484.750327 5.6875 483.75 C6.268384 482.730754 6.849268 481.711509 7.447754 480.661377 C12.703814 471.461511 18.045819 462.311872 23.398438 453.167969 C27.682731 445.84302 31.918506 438.490269 36.147949 431.133545 C37.303453 429.126135 38.498568 427.141133 39.727295 425.177689 C41.630814 421.940491 42.852847 418.67974 44.089874 415.138184 C46.884479 408.049342 49.956961 401.837404 56 397 C67.417258 392.805185 80.388384 393.99592 92.353248 394.364616 C97.164198 394.487317 101.974784 394.472649 106.787018 394.473145 C115.88061 394.494655 124.967951 394.637978 134.059456 394.82616 C144.417066 395.034539 154.774232 395.105501 165.133599 395.165476 C186.425391 395.291794 207.711926 395.588884 229 396 C229.373884 395.337731 229.747768 394.675461 230.132982 393.993123 C231.842381 390.96568 233.55229 387.938526 235.262207 384.911377 C235.850367 383.869535 236.438527 382.827693 237.04451 381.75428 C240.935564 374.866846 244.864462 368.006124 248.875 361.1875 C255.671007 349.581849 262.395909 337.936053 269.108887 326.282227 C272.859464 319.772704 276.61502 313.266052 280.370361 306.759277 C283.523852 301.294653 286.67467 295.828521 289.820312 290.359375 C290.450745 289.264558 291.081177 288.169741 291.730713 287.041748 C292.982008 284.867342 294.231235 282.691744 295.478271 280.514893 C298.545104 275.178384 301.664253 269.886973 304.902344 264.652344 C305.518354 263.646553 306.134365 262.640762 306.769043 261.604492 C307.936167 259.706207 309.118095 257.816919 310.316895 255.938477 C310.832358 255.096396 311.347822 254.254316 311.878906 253.386719 C312.338538 252.656707 312.798169 251.926694 313.271729 251.174561 C314.239637 248.961889 314.239637 248.961889 313.303223 246.527344 C312.017128 244.033217 310.696556 241.592274 309.269531 239.175781 C308.72176 238.243306 308.173989 237.31083 307.609619 236.350098 C307.01657 235.34769 306.423521 234.345283 305.8125 233.3125 C304.535873 231.139667 303.259852 228.966477 301.984375 226.792969 C300.995342 225.109534 300.995342 225.109534 299.986328 223.39209 C296.819678 217.984342 293.690112 212.555392 290.5625 207.125 C289.630145 205.507186 289.630145 205.507186 288.678955 203.856689 C287.416156 201.665309 286.153542 199.473821 284.891113 197.282227 C281.763199 191.853401 278.631416 186.426807 275.5 181 C274.249981 178.833344 272.999981 176.666678 271.75 174.5 C271.13125 173.4275 270.5125 172.355 269.875 171.25 C264.25 161.5 264.25 161.5 262.373535 158.247314 C261.128587 156.089502 259.883471 153.931786 258.638184 151.77417 C255.434473 146.222834 252.234064 140.669635 249.039062 135.113281 C248.383574 133.974395 247.728086 132.835508 247.052734 131.662109 C245.821152 129.522125 244.590581 127.381558 243.361328 125.240234 C242.237992 123.289311 241.097886 121.347914 239.938519 119.418184 C238.562677 116.992165 237.390885 114.697262 236.26414 112.167616 C232.528134 104.256778 232.528134 104.256778 225.453287 99.650471 C221.067665 98.985352 216.701702 99.178987 212.284424 99.348145 C210.598294 99.357259 208.912117 99.359615 207.225967 99.355759 C203.608028 99.361612 199.994947 99.414295 196.378122 99.503941 C190.658397 99.644875 184.941141 99.677059 179.219894 99.69455 C169.144961 99.739102 159.072819 99.874851 148.999084 100.031067 C133.824155 100.265682 118.648716 100.429421 103.472166 100.505774 C97.786407 100.537828 92.103959 100.618 86.41937 100.736545 C82.88465 100.801979 79.350297 100.830658 75.815054 100.84997 C74.177354 100.866769 72.539727 100.899158 70.902679 100.948351 C58.52115 101.309441 58.52115 101.309441 54.727617 98.04388 C53.165281 95.742882 52.051092 93.567973 51 91 C50.403486 89.994531 49.806973 88.989063 49.192383 87.953125 C48.4552 86.615078 48.4552 86.615078 47.703125 85.25 C47.142463 84.238811 46.581802 83.227622 46.00415 82.185791 C45.135846 80.608824 45.135846 80.608824 44.25 79 C40.258244 71.811078 36.260115 64.633572 32.0625 57.5625 C27.18043 49.336728 22.398477 41.054752 17.628662 32.763428 C14.646831 27.581456 11.657729 22.404676 8.628906 17.25 C7.863082 15.942649 7.863082 15.942649 7.081787 14.608887 C6.137449 12.998748 5.189275 11.390849 4.236572 9.785645 C3.612867 8.719993 3.612867 8.719993 2.976562 7.632812 C2.616431 7.023247 2.256299 6.413682 1.885254 5.785645 C0.939496 3.877957 0.486587 2.066399 0 0 Z " transform="translate(102,2)"/>
    <path d="M0 0 C0.495 0.99 0.495 0.99 1 2 C1.66 2 2.32 2 3 2 C3.4353 2.765703 3.4353 2.765703 3.879395 3.546875 C9.863184 14.064544 15.890123 24.555013 22 35 C26.37379 42.477423 30.714371 49.971696 35 57.5 C39.226159 64.922319 43.501777 72.313974 47.8125 79.6875 C54.62358 91.338106 61.372737 103.02372 68.108887 114.717773 C71.236801 120.146599 74.368584 125.573193 77.5 131 C78.750019 133.166656 80.000019 135.333322 81.25 137.5 C81.86875 138.5725 82.4875 139.645 83.125 140.75 C88.75 150.5 88.75 150.5 90.625244 153.750488 C91.874355 155.915571 93.123541 158.08061 94.372803 160.245605 C97.512023 165.686157 100.649906 171.127472 103.785156 176.570312 C111.968506 190.773257 111.968506 190.773257 120.221924 204.935547 C121.359909 206.885361 122.490054 208.839775 123.612061 210.798828 C126.454225 215.746254 129.36729 220.612062 132.502274 225.378265 C134.107907 227.836047 135.665974 230.322251 137.219757 232.813049 C137.980684 234.006532 138.76288 235.186757 139.567108 236.351501 C142.165591 240.124483 144.148515 243.474307 145 248 C143.211501 253.376993 140.311482 257.442934 137 262 C136.144986 263.470218 135.313217 264.954671 134.523438 266.460938 C134.170396 267.103938 133.817354 267.746938 133.453613 268.409424 C133.097671 269.058064 132.741729 269.706704 132.375 270.375 C127.817852 278.62794 123.079293 286.769731 118.313965 294.903809 C114.502207 301.413371 110.730676 307.94366 107 314.5 C102.773997 321.922406 98.498222 329.313976 94.1875 336.6875 C87.37642 348.338106 80.627263 360.02372 73.891113 371.717773 C70.763199 377.146599 67.631416 382.573193 64.5 388 C63.249981 390.166656 61.999981 392.333322 60.75 394.5 C53.25 407.5 45.75 420.5 38.25 433.5 C37.630767 434.573386 37.011533 435.646772 36.373535 436.752686 C35.128587 438.910498 33.883471 441.068214 32.638184 443.22583 C29.434473 448.777166 26.234064 454.330365 23.039062 459.886719 C19.370577 466.264324 15.690612 472.635174 12 479 C11.511768 479.843853 11.023535 480.687705 10.520508 481.557129 C9.271469 483.709451 8.013203 485.85597 6.75 488 C6.084844 489.134375 5.419688 490.26875 4.734375 491.4375 C3 494 3 494 0 496 C-3.069429 493.16001 -5.099187 490.401374 -7.101562 486.738281 C-7.668911 485.710576 -8.23626 484.682871 -8.820801 483.624023 C-9.416187 482.531221 -10.011572 481.438418 -10.625 480.3125 C-11.883998 478.031768 -13.144418 475.751821 -14.40625 473.472656 C-15.021133 472.360356 -15.636016 471.248057 -16.269531 470.102051 C-18.494054 466.114356 -20.790583 462.174094 -23.125 458.25 C-26.72906 452.180391 -30.258441 446.072538 -33.75 439.9375 C-38.296522 431.957632 -42.881033 424.000669 -47.5 416.0625 C-48.381235 414.543541 -48.381235 414.543541 -49.280273 412.993896 C-52.67889 407.149595 -52.67889 407.149595 -56.46875 401.558594 C-58 399 -58 399 -57.787598 397.190186 C-56.781778 394.39316 -55.416525 391.9738 -53.929688 389.398438 C-53.288298 388.281948 -52.646909 387.165459 -51.986084 386.015137 C-51.282486 384.801702 -50.578789 383.588324 -49.875 382.375 C-49.148089 381.113692 -48.421614 379.852132 -47.695557 378.590332 C-45.828443 375.348006 -43.955765 372.108932 -42.081726 368.870605 C-40.427236 366.009531 -38.778153 363.145349 -37.128906 360.28125 C-34.044771 354.927136 -30.954756 349.576441 -27.863281 344.226562 C-25.979649 340.96476 -24.098777 337.701382 -22.21875 334.4375 C-15.605493 322.958367 -8.966404 311.495201 -2.280273 300.05835 C2.75627 291.436362 7.746689 282.788081 12.710938 274.124268 C15.401967 269.440319 18.1063 264.777493 20.980469 260.203125 C21.413191 259.510334 21.845913 258.817544 22.291748 258.10376 C23.400086 256.345961 24.527265 254.600078 25.65625 252.855469 C27.253677 249.460936 27.01519 248.530077 26 245 C24.754473 242.393653 24.754473 242.393653 23.148438 239.738281 C22.551924 238.714846 21.95541 237.691411 21.34082 236.636963 C20.6921 235.53989 20.043379 234.442817 19.375 233.3125 C18.698144 232.155955 18.02205 230.998965 17.34668 229.841553 C15.940099 227.432355 14.530245 225.025118 13.118164 222.619141 C9.796387 216.952333 6.526501 211.255558 3.25 205.5625 C-1.42443 197.456916 -6.10698 189.356087 -10.797852 181.26001 C-14.706789 174.511412 -18.603767 167.755939 -22.5 161 C-29.026308 149.684646 -29.026308 149.684646 -35.5625 138.375 C-35.986521 137.642087 -36.410542 136.909175 -36.847412 136.154053 C-39.460905 131.642232 -42.086734 127.13776 -44.71875 122.636719 C-45.356111 121.546333 -45.993472 120.455947 -46.650146 119.33252 C-47.901085 117.193484 -49.153155 115.05511 -50.406494 112.91748 C-50.97489 111.945688 -51.543286 110.973896 -52.128906 109.972656 C-52.634944 109.109065 -53.140981 108.245474 -53.662354 107.355713 C-54.103777 106.578328 -54.5452 105.800942 -55 105 C-55.614762 104.041783 -55.614762 104.041783 -56.241943 103.064209 C-57.350577 100.04537 -56.809684 98.084834 -56 95 C-54.655762 92.161133 -54.655762 92.161133 -52.929688 89.203125 C-52.288218 88.09292 -51.646748 86.982715 -50.98584 85.838867 C-50.282377 84.64249 -49.57876 83.446203 -48.875 82.25 C-48.148371 80.999534 -47.422636 79.748549 -46.697754 78.49707 C-45.204108 75.921139 -43.705618 73.348124 -42.203125 70.777344 C-39.520684 66.184395 -36.871764 61.572488 -34.221436 56.960938 C-28.12617 46.361316 -21.977423 35.793001 -15.801025 25.240479 C-13.325294 21.006831 -10.858005 16.770468 -8.453125 12.496094 C-8.083728 11.840283 -7.714331 11.184473 -7.33374 10.508789 C-6.40126 8.845796 -5.475656 7.178953 -4.550781 5.511719 C-3.19343 3.313288 -1.923246 1.70245 0 0 Z " transform="translate(58,2)"/>
  </g>
</svg>
