<svg id="svg" xmlns="http://www.w3.org/2000/svg" xmlns:xlink="http://www.w3.org/1999/xlink" width="400" height="400" viewBox="0, 0, 400,400">
  <style>
    .lxi-logo-original { fill: var(--ai-reposose-logo-color); }
  </style>
  <g id="svgg">
    <path id="path0" class="lxi-logo-original" d="M197.263 1.800 C 196.787 3.457,195.280 12.904,194.742 17.600 C 194.464 20.020,193.351 27.040,192.268 33.200 C 191.184 39.360,190.111 45.660,189.882 47.200 C 189.479 49.916,187.317 60.067,184.011 74.757 C 182.326 82.249,178.843 94.463,177.613 97.200 C 177.217 98.080,176.664 99.970,176.383 101.400 C 176.102 102.830,175.566 104.000,175.190 104.000 C 174.815 104.000,174.261 104.810,173.959 105.800 C 170.995 115.511,160.671 134.438,154.429 141.600 C 151.429 145.043,149.074 147.550,147.509 148.965 C 146.679 149.716,144.740 151.626,143.200 153.211 C 140.439 156.052,125.675 166.400,124.383 166.400 C 124.017 166.400,119.996 168.200,115.447 170.400 C 110.897 172.600,106.821 174.400,106.388 174.400 C 105.954 174.400,105.600 174.711,105.600 175.090 C 105.600 175.470,103.530 176.395,101.000 177.145 C 98.470 177.895,95.581 178.840,94.580 179.246 C 92.695 180.010,73.126 185.229,69.600 185.908 C 68.500 186.120,63.640 187.180,58.800 188.264 C 53.960 189.349,48.380 190.453,46.400 190.719 C 44.420 190.985,41.900 191.403,40.800 191.647 C 39.700 191.892,34.840 192.761,30.000 193.579 C 21.838 194.958,19.465 195.313,10.800 196.453 C -4.040 198.405,-3.877 200.977,11.200 202.767 C 13.620 203.055,18.660 203.802,22.400 204.427 C 26.140 205.053,31.540 205.916,34.400 206.346 C 37.260 206.776,40.665 207.344,41.967 207.610 C 73.026 213.937,77.375 214.966,91.446 219.317 C 98.571 221.521,105.030 223.518,105.800 223.755 C 106.570 223.992,107.200 224.461,107.200 224.796 C 107.200 225.132,108.370 225.866,109.800 226.428 C 137.080 237.157,155.405 253.744,167.492 278.651 C 170.307 284.453,172.834 290.165,173.107 291.344 C 173.379 292.523,174.094 293.980,174.696 294.581 C 175.685 295.570,176.684 297.905,177.144 300.299 C 177.239 300.795,178.243 304.080,179.376 307.600 C 185.216 325.745,192.159 360.703,196.536 394.000 C 197.070 398.066,197.934 398.980,199.635 397.279 C 200.497 396.417,200.849 395.098,200.625 393.571 C 200.434 392.267,200.494 391.200,200.758 391.200 C 201.023 391.200,201.906 386.790,202.720 381.400 C 204.251 371.270,204.498 369.781,205.205 366.400 C 205.436 365.300,205.978 361.967,206.410 358.994 C 206.842 356.021,207.537 352.061,207.954 350.194 C 208.371 348.327,208.927 345.540,209.191 344.000 C 209.455 342.460,210.018 339.886,210.444 338.281 C 211.380 334.750,212.685 328.613,213.309 324.800 C 213.561 323.260,215.033 317.860,216.581 312.800 C 218.128 307.740,219.666 302.520,219.999 301.200 C 221.076 296.930,224.213 289.216,225.119 288.612 C 225.631 288.271,225.665 288.014,225.200 288.000 C 224.760 287.987,224.814 287.711,225.319 287.388 C 226.164 286.847,231.200 276.622,231.200 275.447 C 231.200 273.537,240.844 259.859,246.322 254.000 C 247.967 252.240,249.378 250.440,249.457 250.000 C 249.535 249.560,249.889 249.200,250.241 249.200 C 250.594 249.200,252.304 247.833,254.041 246.162 C 258.088 242.270,269.706 234.417,275.282 231.805 C 283.477 227.966,287.115 226.400,287.834 226.400 C 288.231 226.400,289.282 225.770,290.171 225.000 C 291.059 224.230,293.724 222.990,296.093 222.244 C 305.860 219.169,316.692 216.008,321.200 214.918 C 327.996 213.276,336.780 211.287,339.600 210.752 C 356.633 207.524,375.102 204.332,385.800 202.767 C 390.970 202.011,395.200 201.072,395.200 200.681 C 395.200 200.290,396.051 200.183,397.092 200.444 C 398.317 200.752,399.133 200.530,399.407 199.813 C 399.848 198.666,399.500 198.596,372.000 194.311 C 366.060 193.386,360.480 192.489,359.600 192.318 C 358.720 192.146,355.840 191.637,353.200 191.185 C 350.560 190.734,345.970 189.832,343.000 189.182 C 340.030 188.532,334.990 187.437,331.800 186.749 C 313.063 182.709,292.000 176.468,292.000 174.956 C 292.000 174.556,291.441 174.443,290.758 174.705 C 290.076 174.967,289.721 174.852,289.970 174.448 C 290.219 174.045,289.608 173.462,288.612 173.153 C 277.828 169.807,263.678 161.543,254.798 153.405 C 252.520 151.318,250.419 149.788,250.128 150.005 C 249.838 150.222,249.754 150.186,249.943 149.924 C 250.131 149.662,248.427 147.488,246.155 145.091 C 242.309 141.034,239.437 137.282,234.906 130.400 C 233.892 128.860,231.339 123.820,229.233 119.200 C 227.127 114.580,225.170 110.620,224.885 110.400 C 224.120 109.809,222.416 105.788,220.817 100.800 C 218.541 93.700,213.710 76.605,213.244 74.000 C 212.448 69.554,210.595 61.210,210.134 60.000 C 209.883 59.340,209.473 57.397,209.224 55.682 C 208.975 53.967,208.601 51.807,208.394 50.882 C 207.949 48.897,207.346 45.488,206.754 41.600 C 206.519 40.060,205.964 37.868,205.520 36.730 C 205.076 35.591,204.804 34.331,204.915 33.930 C 205.027 33.528,204.843 31.400,204.507 29.200 C 204.172 27.000,203.733 24.120,203.533 22.800 C 203.332 21.480,202.831 18.600,202.418 16.400 C 202.006 14.200,201.422 10.253,201.121 7.629 C 200.505 2.268,198.150 -1.291,197.263 1.800 " stroke="none" fill="#36454f" fill-rule="evenodd"/>
  </g>
</svg>
