<!-- src/assets/lxi-name-logo.svg -->
<svg version="1.2" xmlns="http://www.w3.org/2000/svg" viewBox="0 0 1119 664" width="1119" height="664">
  <style>
    .s0 { fill: var(--logo-color); }
  </style>
  <path id="lxi" class="s0" aria-label="lxi" d="m85.9 594h86.1c8.4 0 14-3.5 14-9.1v-2.1c0-14-27.3-13.3-27.3-37.8v-464.8c0-9.1-7.7-16.8-21.7-9.8l-54.6 26.6c-6.3 3.5-9.8 5.6-9.8 11.2v1.4c0 10.5 24.5 14.7 24.5 42v393.4c0 24.5-24.5 23.8-24.5 37.8v2.1c0 5.6 4.9 9.1 13.3 9.1zm433.3-98.7c-15.4 33.6-48.3 60.9-100.1 60.9-56.7 0-99.4-36.4-115.5-96.6l193.9-63.7c21-7 32.9-18.9 32.9-41.3 0-48.3-46.2-103.6-130.2-103.6-93.1 0-165.2 73.5-165.2 172.2 0 109.2 72.1 177.8 162.4 177.8 87.5 0 133.7-58.1 142.1-100.1 2.1-13.3-14-15.4-20.3-5.6zm-129.5-221.9c48.3 0 81.9 51.1 81.9 82.6 0 11.9-4.9 19.6-16.8 24.5l-156.1 56c-2.1-11.2-2.8-23.1-2.8-35.7 0-71.4 37.1-127.4 93.8-127.4zm464.8 268.8l-95.9-120.4 95.2-110.6c22.4-26.6 37.1-30.1 37.1-42.7v-2.1c0-5.6-4.2-8.4-10.5-8.4h-62.3c-6.3 0-10.5 3.5-10.5 8.4v2.1c0 12.6 32.2 18.9 10.5 43.4l-77 87.5-70-87.5c-18.9-23.8 6.3-29.4 6.3-43.4v-2.1c0-4.9-4.2-8.4-10.5-8.4h-95.9c-5.6 0-9.8 2.8-9.8 8.4v2.1c0 14 17.5 12.6 41.3 42.7l91 115.5-98 114.1c-25.2 28.7-47.6 30.8-47.6 42.7v2.1c0 5.6 3.5 8.4 10.5 8.4h75.6c7 0 11.2-3.5 11.2-9.1v-1.4c0-11.2-35.7-11.2-10.5-40.6l77.7-92.4 72.1 91c22.4 28-10.5 29.4-10.5 42v1.4c0 5.6 4.2 9.1 10.5 9.1h98c6.3 0 10.5-2.8 10.5-8.4v-2.1c0-12.6-20.3-18.9-38.5-41.3zm129.5-350.7c27.3 0 45.5-17.5 45.5-43.4 0-25.9-18.2-44.1-45.5-44.1-28.7 0-46.9 18.2-46.9 44.1 0 25.9 18.2 43.4 46.9 43.4zm-40.6 402.5h86.1c8.4 0 14.7-3.5 14.7-9.1v-2.8c0-13.3-28-13.3-28-37.8v-280.7c0-9.8-7-16.8-21.7-9.8l-53.9 26.6c-6.3 3.5-10.5 5.6-10.5 10.5v1.4c0 10.5 25.2 16.1 25.2 43.4v208.6c0 24.5-25.2 24.5-25.2 37.8v2.8c0 5.6 4.9 9.1 13.3 9.1z"/>
</svg>
