<svg class="w-10 h-10" viewBox="0 0 79 79" fill="none" xmlns="http://www.w3.org/2000/svg">
  <path fill-rule="evenodd" clip-rule="evenodd" d="M31.2306 5.54057C34.1298 8.43982 36.9177 13.0494 38.9437 18.0181C40.9931 12.6804 43.9556 7.64994 47.0446 4.56098C54.3219 -2.71631 65.0577 -0.377411 71.3955 5.96046C77.7334 12.2983 80.912 22.1944 72.795 30.3114C69.1671 33.9393 63.7113 37.1094 58.1271 39.107C64.2028 41.1409 70.1524 44.4624 73.6346 47.9446C80.9119 55.2219 78.573 65.9577 72.2352 72.2956C65.8973 78.6335 56.0012 81.8121 47.8842 73.6951C44.1513 69.9621 40.9031 64.2939 38.9181 58.5419C36.9145 64.0019 33.802 69.3044 30.2509 72.8556C22.1339 80.9725 12.2378 77.7939 5.89991 71.4561C-0.437957 65.1182 -2.77686 54.3824 4.50043 47.1051C7.53292 44.0726 12.4366 41.162 17.6652 39.1175C12.978 37.1338 8.56729 34.3781 5.48014 31.291C-2.63684 23.174 0.541746 13.2779 6.87962 6.94005C13.2175 0.602178 23.9533 -1.73672 31.2306 5.54057ZM50.3685 28.1253C44.1239 34.117 34.2858 34.1853 27.9586 28.2809C33.9504 34.5255 34.0187 44.3636 28.1143 50.6908C34.3589 44.699 44.1969 44.6307 50.5241 50.5351C44.5324 44.2906 44.4641 34.4525 50.3685 28.1253Z" fill="currentColor"/>
  <path fill-rule="evenodd" clip-rule="evenodd" d="M31.2306 5.54057C34.1298 8.43982 36.9177 13.0494 38.9437 18.0181C40.9931 12.6804 43.9556 7.64994 47.0446 4.56098C54.3219 -2.71631 65.0577 -0.377411 71.3955 5.96046C77.7334 12.2983 80.912 22.1944 72.795 30.3114C69.1671 33.9393 63.7113 37.1094 58.1271 39.107C64.2028 41.1409 70.1524 44.4624 73.6346 47.9446C80.9119 55.2219 78.573 65.9577 72.2352 72.2956C65.8973 78.6335 56.0012 81.8121 47.8842 73.6951C44.1513 69.9621 40.9031 64.2939 38.9181 58.5419C36.9145 64.0019 33.802 69.3044 30.2509 72.8556C22.1339 80.9725 12.2378 77.7939 5.89991 71.4561C-0.437957 65.1182 -2.77686 54.3824 4.50043 47.1051C7.53292 44.0726 12.4366 41.162 17.6652 39.1175C12.978 37.1338 8.56729 34.3781 5.48014 31.291C-2.63684 23.174 0.541746 13.2779 6.87962 6.94005C13.2175 0.602178 23.9533 -1.73672 31.2306 5.54057ZM50.3685 28.1253C44.1239 34.117 34.2858 34.1853 27.9586 28.2809C33.9504 34.5255 34.0187 44.3636 28.1143 50.6908C34.3589 44.699 44.1969 44.6307 50.5241 50.5351C44.5324 44.2906 44.4641 34.4525 50.3685 28.1253Z" fill="currentColor" fill-opacity="0.2"/>
</svg>